<?xml version="1.0" standalone="no"?>
<!DOCTYPE svg PUBLIC "-//W3C//DTD SVG 20010904//EN"
 "http://www.w3.org/TR/2001/REC-SVG-20010904/DTD/svg10.dtd">
<svg version="1.0" xmlns="http://www.w3.org/2000/svg"
 width="512.000000pt" height="512.000000pt" viewBox="0 0 512.000000 512.000000"
 preserveAspectRatio="xMidYMid meet">
<metadata>
Created by potrace 1.14, written by Peter Selinger 2001-2017
</metadata>
<g transform="translate(0.000000,512.000000) scale(0.100000,-0.100000)"
fill="#000000" stroke="none">
<path d="M0 2560 l0 -2560 2560 0 2560 0 0 2560 0 2560 -2560 0 -2560 0 0
-2560z m3110 1781 c374 -78 586 -220 708 -474 98 -203 104 -491 15 -726 -92
-244 -371 -583 -598 -726 -33 -21 -61 -39 -63 -40 -2 -2 28 -49 67 -105 124
-181 163 -316 142 -502 -25 -224 -113 -400 -286 -573 -269 -271 -704 -436
-1150 -439 -176 -1 -255 14 -380 75 -167 80 -267 211 -317 416 -89 367 101
1192 423 1834 66 133 218 395 260 447 25 33 17 39 -18 15 -42 -29 -109 -53
-148 -53 -86 0 -227 71 -302 152 -123 134 -105 243 62 381 204 169 622 301
1065 337 163 13 409 4 520 -19z"/>
<path d="M2735 3860 c-93 -9 -188 -25 -265 -47 -63 -17 -170 -54 -170 -59 0
-1 24 -10 53 -18 97 -28 243 -141 285 -221 9 -16 16 -52 16 -80 0 -47 -9 -65
-161 -316 -145 -239 -283 -484 -283 -502 0 -22 163 13 279 59 118 47 239 116
371 212 262 191 397 440 377 696 -8 112 -56 186 -152 234 -74 37 -215 54 -350
42z"/>
<path d="M2365 2163 c-38 -6 -215 -47 -325 -76 l-85 -22 -47 -140 c-66 -200
-90 -324 -92 -475 -1 -114 1 -128 22 -161 82 -133 379 -87 620 98 179 137 276
304 277 478 0 104 -22 161 -82 214 -70 62 -194 99 -288 84z"/>
</g>
</svg>
